<svg xmlns="http://www.w3.org/2000/svg" version="1.1" xmlns:xlink="http://www.w3.org/1999/xlink" xmlns:svgjs="http://svgjs.com/svgjs" width="78" height="78"><svg xmlns="http://www.w3.org/2000/svg" viewBox="16 0.00045681 78 78">
  <path d="M 40.5 61.401 L 43.4 46.301 A 23.312 23.312 0 0 0 43.804 43.442 A 30.046 30.046 0 0 0 43.9 41.001 Q 43.9 37.579 42.958 35.301 A 7.277 7.277 0 0 0 41.1 32.601 L 41.2 32.101 L 65.5 25.001 L 66 25.001 L 57.8 67.001 Q 57.55 68.083 57.508 68.958 A 7.187 7.187 0 0 0 57.5 69.301 A 3.015 3.015 0 0 0 57.56 69.932 Q 57.79 71.001 58.9 71.001 A 1.95 1.95 0 0 0 59.935 70.677 Q 60.832 70.119 61.75 68.601 Q 63.2 66.201 65.3 60.601 L 67 60.601 A 47.648 47.648 0 0 1 65.759 65.521 Q 64.144 70.665 61.629 73.596 A 13.834 13.834 0 0 1 61.45 73.801 A 12.329 12.329 0 0 1 53.82 77.814 A 17.695 17.695 0 0 1 51.2 78.001 A 14.524 14.524 0 0 1 47.747 77.613 A 9.881 9.881 0 0 1 43 75.001 Q 40.34 72.34 40.039 67.557 A 19.992 19.992 0 0 1 40 66.301 A 18.736 18.736 0 0 1 40.049 65.006 Q 40.156 63.463 40.5 61.401 Z M 55.6 66.601 L 63.3 27.701 L 44.3 33.301 Q 46.2 36.5 46.2 41.1 A 25.745 25.745 0 0 1 46.01 44.152 A 32.914 32.914 0 0 1 45.6 46.701 L 42.7 61.801 A 61.423 61.423 0 0 0 42.481 63.207 Q 42.272 64.673 42.218 65.671 A 11.837 11.837 0 0 0 42.2 66.301 A 15.988 15.988 0 0 0 42.419 69.039 Q 42.91 71.857 44.5 73.551 A 7.376 7.376 0 0 0 47.944 75.588 Q 49.123 75.923 50.536 75.986 A 14.961 14.961 0 0 0 51.2 76.001 A 16.604 16.604 0 0 0 53.675 75.825 A 12.394 12.394 0 0 0 56 75.251 A 10.448 10.448 0 0 0 58.547 73.903 A 13.517 13.517 0 0 0 60 72.701 A 1.375 1.375 0 0 1 59.559 72.916 Q 59.366 72.973 59.135 72.991 A 2.921 2.921 0 0 1 58.9 73.001 Q 56.068 73.001 55.464 70.588 A 6.139 6.139 0 0 1 55.3 69.101 A 10.624 10.624 0 0 1 55.455 67.324 A 12.535 12.535 0 0 1 55.6 66.601 Z M 46.6 62.501 L 49.5 47.401 Q 50.1 43.901 50.1 41.001 Q 50.1 38.201 49.5 35.701 L 58.1 33.201 L 51.7 65.801 A 17.269 17.269 0 0 0 51.414 68.239 A 15.343 15.343 0 0 0 51.4 68.901 A 10.161 10.161 0 0 0 51.515 70.467 Q 51.653 71.35 51.956 72.095 A 6.251 6.251 0 0 0 52 72.201 A 13.274 13.274 0 0 1 50.475 72.119 Q 48.811 71.926 47.853 71.274 A 3.133 3.133 0 0 1 47.4 70.901 Q 46.1 69.601 46.1 66.301 A 5.058 5.058 0 0 1 46.118 65.923 Q 46.188 65.016 46.538 62.877 A 130.859 130.859 0 0 1 46.6 62.501 Z M 53.976 19.461 A 9.874 9.874 0 0 0 57.3 20.001 Q 60.1 20.001 62.65 18.551 Q 65.2 17.101 66.75 14.601 Q 68.3 12.101 68.3 9.101 Q 68.3 5.201 65.7 2.601 A 8.571 8.571 0 0 0 62.385 0.516 A 10.068 10.068 0 0 0 59.1 0.001 Q 56.3 0.001 53.75 1.451 Q 51.2 2.901 49.65 5.401 Q 48.1 7.901 48.1 10.901 A 11.108 11.108 0 0 0 48.1 10.93 A 8.861 8.861 0 0 0 50.7 17.351 A 8.553 8.553 0 0 0 53.976 19.461 Z M 57.3 18.001 A 8.346 8.346 0 0 0 63.115 15.671 A 11.001 11.001 0 0 0 63.45 15.351 A 9.081 9.081 0 0 0 65.468 12.39 A 8.538 8.538 0 0 0 66.1 9.101 A 8.062 8.062 0 0 0 65.74 6.64 A 6.611 6.611 0 0 0 64.15 4.001 A 6.54 6.54 0 0 0 59.949 2.04 A 8.91 8.91 0 0 0 59.1 2.001 A 8.346 8.346 0 0 0 53.285 4.33 A 11.001 11.001 0 0 0 52.95 4.651 A 9.081 9.081 0 0 0 50.932 7.611 A 8.538 8.538 0 0 0 50.3 10.901 A 7.853 7.853 0 0 0 50.682 13.401 A 6.583 6.583 0 0 0 52.3 16.001 A 6.747 6.747 0 0 0 57.108 17.998 A 8.857 8.857 0 0 0 57.3 18.001 Z M 55.992 14.8 A 4.078 4.078 0 0 0 57.3 15.001 A 4.896 4.896 0 0 0 59.766 14.349 A 6.219 6.219 0 0 0 61.2 13.201 A 7.507 7.507 0 0 0 61.431 12.945 A 5.737 5.737 0 0 0 62.9 9.101 A 6.839 6.839 0 0 0 62.9 9.057 Q 62.888 7.188 61.85 6.101 A 3.412 3.412 0 0 0 60.374 5.182 A 4.269 4.269 0 0 0 59.1 5.001 A 4.896 4.896 0 0 0 56.634 5.652 A 6.219 6.219 0 0 0 55.2 6.801 A 7.507 7.507 0 0 0 54.969 7.056 A 5.737 5.737 0 0 0 53.5 10.901 Q 53.5 12.701 54.55 13.851 A 3.394 3.394 0 0 0 55.992 14.8 Z" fill="#000000"></path>
</svg><style>@media (prefers-color-scheme: light) { :root { filter: none; } }
@media (prefers-color-scheme: dark) { :root { filter: invert(100%); } }
</style></svg>