<svg xmlns="http://www.w3.org/2000/svg" viewBox="0 0 237.1 78"><path fill-rule="evenodd" stroke="#000" stroke-linecap="round" stroke-width=".9" d="m28.5 76.5.1-.6a31.5 31.5 0 0 0 5.1-5.9 36.5 36.5 0 0 0 1-1.5 28.2 28.2 0 0 0 3-6.4 25.2 25.2 0 0 0 .6-2.6l7.2-37.4a28.3 28.3 0 0 0 .2-2 21.8 21.8 0 0 0 .1-1.7 19.5 19.5 0 0 0-.8-5.7 18.3 18.3 0 0 0-.2-.5 16.3 16.3 0 0 0-1.5-3.3A13.7 13.7 0 0 0 42 7.1l.1-.6H64l26.3 44 5.3-27q.4-1.9.4-4.1 0-6.7-3.8-12.3l.1-.6h15.3l-.1.6a31.5 31.5 0 0 0-5.1 5.9 36.5 36.5 0 0 0-1 1.6 28.2 28.2 0 0 0-3 6.3 25.2 25.2 0 0 0-.6 2.6l-10.3 53h-4L48.5 18l-8 41.5q-.4 1.9-.4 4.1 0 6.7 3.8 12.3l-.1.6H28.5Zm73.5 0 .1-.5q2.7-2.9 4.4-6.6a32.6 32.6 0 0 0 1.3-3.5l1-4a57.6 57.6 0 0 0 .3-1.4l7.4-38q.6-3.3.8-5.9a27.5 27.5 0 0 0 0-1.5q0-4.9-1.8-8.1l.1-.5h51.7l-.8 22h-1a34.6 34.6 0 0 0-2-6.6q-2.1-5-5.8-8.3-5.9-5.1-16.7-5.1h-1.8l-6.2 32h3a24 24 0 0 0 4.4-.4q2.5-.4 4.5-1.5a13.4 13.4 0 0 0 1.5-.9 18.8 18.8 0 0 0 2.6-2.2q2.4-2.5 5.1-6.6a73.7 73.7 0 0 0 .9-1.4h1l-5.4 28h-1a48.3 48.3 0 0 0-.8-3q-.9-2.8-2-4.7a13.6 13.6 0 0 0 0-.1 10.4 10.4 0 0 0-1.9-2.4 8.8 8.8 0 0 0-2.3-1.6 11.2 11.2 0 0 0-2.2-.7q-2-.5-4.8-.5h-3l-3.6 18a55.7 55.7 0 0 0-.5 3q-.3 2.3-.3 4.1a17.5 17.5 0 0 0 .5 4.2 13.5 13.5 0 0 0 1.8 4.2l-.1.5H102Zm75.9 0 .1-.5q2.7-2.9 4.3-6.6a32.6 32.6 0 0 0 1.4-3.5l1-4a57.6 57.6 0 0 0 .3-1.4l10.1-52h-.7a17.8 17.8 0 0 0-7.1 1.6q-2.6 1.1-5.2 3a40 40 0 0 0-3.2 2.6q-4.3 3.9-8.8 10a107.4 107.4 0 0 0-2.9 4.3h-1l7.6-23.5h63.3l-.9 23.5h-1q-2.6-10.7-7.6-16.1a18.1 18.1 0 0 0-4.5-3.5 14.8 14.8 0 0 0-7.3-1.9h-.7l-10.1 52q-.6 3.3-.8 5.9a27.5 27.5 0 0 0 0 1.5q0 4.9 1.8 8.1l-.1.5h-28Zm-71.8-2h21.2a13.9 13.9 0 0 1-1-3l-.3-3a25.5 25.5 0 0 1 0-1.1q0-2.2.4-5.2a61.4 61.4 0 0 1 .4-2.1L137 8.5h-18.5a17.4 17.4 0 0 1 .7 3.1q.3 1.5.3 3.2a29.7 29.7 0 0 1 0 .5q0 3.9-.8 7.6l-7.4 38q-1.4 7-4.2 12a25.8 25.8 0 0 1-1 1.6Zm75.9 0h21a19.4 19.4 0 0 1-1-5.4 22.7 22.7 0 0 1-.1-1.3q0-3 .7-6.5a52.6 52.6 0 0 1 .2-1.2l10.1-51.6h-15.6l-10.1 52.4q-1.4 7-4.2 12a25.8 25.8 0 0 1-1 1.6ZM62.6 8.5H45.4l39.5 66h.8l4-20.8L62.6 8.5ZM.5 61.4l2.9-15.1a23.3 23.3 0 0 0 .4-2.9 30 30 0 0 0 .1-2.4q0-3.4-1-5.7a7.3 7.3 0 0 0-1.8-2.7l.1-.5L25.5 25h.5l-8.2 42q-.3 1-.3 2a7.2 7.2 0 0 0 0 .3 3 3 0 0 0 0 .6Q17.9 71 19 71a2 2 0 0 0 1-.3q1-.6 1.9-2.1 1.4-2.4 3.5-8H27a47.6 47.6 0 0 1-1.2 5q-1.7 5-4.2 8a13.8 13.8 0 0 1-.2.2 12.3 12.3 0 0 1-7.6 4 17.7 17.7 0 0 1-2.6.2 14.5 14.5 0 0 1-3.5-.4A9.9 9.9 0 0 1 3 75q-2.7-2.7-3-7.4a20 20 0 0 1 0-1.3A18.7 18.7 0 0 1 0 65l.5-3.6Zm121.7 9.3h-9.6a34.6 34.6 0 0 0 1-3q1-2.7 1.6-6.1l7.4-38a53.7 53.7 0 0 0 .7-4.5 39.5 39.5 0 0 0 .2-4.1l-.1-2.7h8.8l-9.3 47.1a44.3 44.3 0 0 0-.7 4.4 34.2 34.2 0 0 0-.2 3.6l.1 2.3a81.6 81.6 0 0 0 .1 1Zm75.9 0h-9.6q1.5-3.6 2.6-9.1l9.5-49.3h7.5l-9.2 47.1a57 57 0 0 0-.6 4.3q-.3 2.3-.3 4.4a52.1 52.1 0 0 0 0 .8v1.3a8.8 8.8 0 0 0 .1.5ZM60.3 12.3l25.2 42.1-1.9 10.1-31.3-52.2h8ZM15.6 66.6l7.7-38.9-19 5.6q1.9 3.2 1.9 7.8a25.7 25.7 0 0 1-.2 3 33 33 0 0 1-.4 2.6L2.7 61.8a61.4 61.4 0 0 0-.2 1.4l-.3 2.5a11.8 11.8 0 0 0 0 .6 16 16 0 0 0 .2 2.7q.6 3 2.1 4.6a7.4 7.4 0 0 0 3.4 2q1.2.3 2.6.4a15 15 0 0 0 .7 0 16.6 16.6 0 0 0 2.5-.2 12.4 12.4 0 0 0 2.3-.5 10.4 10.4 0 0 0 2.5-1.4 13.5 13.5 0 0 0 1.5-1.2 1.4 1.4 0 0 1-.4.2H19a3 3 0 0 1-.2.1q-2.8 0-3.4-2.4a6.1 6.1 0 0 1-.2-1.5 10.6 10.6 0 0 1 .2-1.8 12.5 12.5 0 0 1 .1-.7Zm-9-4.1 2.9-15.1q.6-3.5.6-6.4 0-2.8-.6-5.3l8.6-2.5-6.4 32.6a17.3 17.3 0 0 0-.3 2.4 15.3 15.3 0 0 0 0 .7 10.2 10.2 0 0 0 .1 1.6L12 72a6.3 6.3 0 0 0 0 .1 13.3 13.3 0 0 1-1.5 0q-1.7-.3-2.6-1a3.1 3.1 0 0 1-.5-.3q-1.3-1.3-1.3-4.6a5 5 0 0 1 0-.4q0-.9.4-3a130.9 130.9 0 0 1 .1-.4Zm7.4-43a9.9 9.9 0 0 0 3.3.5q2.8 0 5.3-1.4 2.6-1.5 4.1-4 1.6-2.5 1.6-5.5 0-3.9-2.6-6.5a8.6 8.6 0 0 0-3.3-2A10 10 0 0 0 19 0q-2.8 0-5.4 1.5-2.5 1.4-4 3.9Q8 7.9 8 10.9a11.1 11.1 0 0 0 0 0 8.9 8.9 0 0 0 2.6 6.5 8.6 8.6 0 0 0 3.3 2Zm3.3-1.5a8.3 8.3 0 0 0 5.8-2.3 11 11 0 0 0 .3-.3 9 9 0 0 0 2-3 8.5 8.5 0 0 0 .7-3.3 8 8 0 0 0-.4-2.5A6.6 6.6 0 0 0 24.1 4 6.5 6.5 0 0 0 20 2a9 9 0 0 0-.8 0 8.3 8.3 0 0 0-5.8 2.3 11 11 0 0 0-.4.4 9 9 0 0 0-2 3 8.5 8.5 0 0 0-.6 3.2 7.9 7.9 0 0 0 .4 2.5 6.6 6.6 0 0 0 1.6 2.6 6.7 6.7 0 0 0 4.8 2 8.9 8.9 0 0 0 .2 0Zm158.1-9.5-4 12.4a53 53 0 0 1 5.8-6.2q4.3-4 9-6.2h-10.8Zm59 12.3.4-12.3h-11.1q6.7 3.4 10.7 12.3Zm-69.7-1.3.3-11h-12.2a20.3 20.3 0 0 1 11.8 10.8 25 25 0 0 1 .1.2Zm-15 29.7 2.8-14.9a20 20 0 0 1-3.8 4 15.4 15.4 0 0 1-6.8 3.2 10.4 10.4 0 0 1 6.6 5.2 16.3 16.3 0 0 1 1.2 2.5ZM16 14.8a4 4 0 0 0 1.3.2 4.9 4.9 0 0 0 2.5-.7 6.2 6.2 0 0 0 1.4-1.1 7.5 7.5 0 0 0 .2-.3A5.7 5.7 0 0 0 23 9.1a6.8 6.8 0 0 0 0 0q0-2-1-3a3.4 3.4 0 0 0-1.5-1A4.3 4.3 0 0 0 19 5a4.9 4.9 0 0 0-2.5.7 6.2 6.2 0 0 0-1.4 1.1 7.5 7.5 0 0 0-.2.3 5.7 5.7 0 0 0-1.5 3.8q0 1.8 1 3a3.4 3.4 0 0 0 1.5.9Zm87.4-6.3h-8.1a20.7 20.7 0 0 1 2.5 8.7 23.7 23.7 0 0 1 0 .1q2.2-4.9 5.6-8.8Zm-70.7 66h8.1a20.7 20.7 0 0 1-2.5-8.7 23.7 23.7 0 0 1 0-.1q-2.2 4.9-5.6 8.8Z" font-size="12" vector-effect="non-scaling-stroke"/></svg>